<svg width="414" height="250" xmlns="http://www.w3.org/2000/svg">
 <defs>
  <clipPath id="clip-day">
   <rect id="svg_1" height="415" width="414"/>
  </clipPath>
 </defs>
 <g>
  <title>background</title>
  <rect fill="none" id="canvas_background" height="252" width="416" y="-1" x="-1"/>
 </g>
 <g>
  <title>Layer 1</title>
  <g stroke="null" clip-path="url(#clip-day)" id="day">
   <rect stroke="null" x="-2.752063" y="-14.000008" id="svg_2" fill="#e6ecf6" height="390" width="423.748036"/>
   <path stroke="null" fill="#fff" d="m194.912067,67.145367a42.633761,39.143783 0 0 0 -8.452443,0.776241a34.859929,32.006313 0 0 0 -48.823143,-22.755325a46.529377,42.720506 0 0 0 -87.470192,29.156964a38.792393,35.616867 0 0 0 1.165819,71.207422l143.58303,0a42.681867,39.187952 0 1 0 0,-78.385301l-0.003071,0zm0.003071,0" id="cloud"/>
   <path stroke="null" opacity="0.52" fill="#fff" d="m263.447681,60.868713a37.359428,34.301205 0 0 0 -7.406379,0.679446a30.545683,28.045229 0 0 0 -42.784222,-19.939807a40.771931,37.434361 0 0 0 -76.646194,25.550169a33.987868,31.205639 0 0 0 1.023546,62.4l125.813248,0a37.404464,34.342554 0 1 0 0,-68.685108l0,-0.004699zm0,0.004699" id="cloud-2"/>
   <path stroke="null" fill="#fff" d="m349.873867,167.921367a26.839423,24.642361 0 0 1 5.322439,0.488675a21.945849,20.149374 0 0 1 30.734015,-14.325687a29.291839,26.894024 0 0 1 55.066774,18.355374a24.417713,22.418892 0 0 1 -0.733882,44.826506l-90.389346,0a26.8732,24.673374 0 1 1 0,-49.345807l0,0.00094zm0,-0.00094" id="cloud-3"/>
   <path stroke="null" fill="#fff" d="m-22.444065,225.812403a34.512947,31.687735 0 0 1 6.842405,0.627759a28.220186,25.910096 0 0 1 39.522181,-18.419277a37.666492,34.583133 0 1 1 70.811982,23.602048a31.39932,28.828988 0 0 1 -0.943709,57.64388l-116.232858,0a34.555936,31.727205 0 1 1 0,-63.45441zm0,0" id="cloud-4"/>
  </g>
 </g>
</svg>