<svg width="414" height="215" xmlns="http://www.w3.org/2000/svg">
 <defs>
  <clipPath id="clip-night">
   <rect id="svg_1" height="415" width="414"/>
  </clipPath>
 </defs>
 <g>
  <title>background</title>
  <rect fill="none" id="canvas_background" height="217" width="416" y="-1" x="-1"/>
 </g>
 <g>
  <title>Layer 1</title>
  <g clip-path="url(#clip-night)" id="night">
   <rect id="svg_2" fill="#243046" height="415" width="414"/>
   <path opacity="0.06" fill="#fff" d="m198.116999,244.347002a41.653,41.653 0 0 0 -8.258,0.826a34.058,34.058 0 0 0 -47.7,-24.214a45.459,45.459 0 0 0 -85.458,31.026a37.9,37.9 0 0 0 1.139,75.772l140.28,0a41.7,41.7 0 1 0 0,-83.41l-0.003,0zm0.003,0" id="cloud"/>
   <path opacity="0.04" fill="#fff" d="m235.766007,120.795002a28.73,28.73 0 0 1 5.7,0.569a23.491,23.491 0 0 1 32.9,-16.7a31.355,31.355 0 1 1 58.946,21.4a26.138,26.138 0 0 1 -0.785,52.263l-96.761,0a28.766,28.766 0 1 1 0,-57.531l0,-0.001zm0,0.001" id="cloud-2"/>
   <g id="moon">
    <path fill="#ffeb98" d="m308.37,101.175a48.813,48.813 0 0 0 37.4,-80.2a54.671,54.671 0 1 1 -68.77,68.766a48.612,48.612 0 0 0 31.37,11.434z" id="Path_1"/>
    <path fill="#efcf6e" d="m362.841,30.107001a54.619,54.619 0 0 1 -76.7,76.7a54.628,54.628 0 1 0 76.7,-76.7z" id="Path_2"/>
   </g>
   <path fill="#333e53" d="m321.40101,122.672002a34.1,34.1 0 0 1 6.761,0.676a27.881,27.881 0 0 1 39.049,-19.823a37.215,37.215 0 0 1 69.962,25.4a31.023,31.023 0 0 1 -0.932,62.03l-114.84,0a34.142,34.142 0 1 1 0,-68.283zm0,0" id="cloud-3"/>
   <path opacity="0.06" fill="#fff" d="m72.215999,58.203a29.048,29.048 0 0 0 -5.759,0.576a23.751,23.751 0 0 0 -33.265,-16.887a31.7,31.7 0 0 0 -59.6,21.638a26.428,26.428 0 0 0 0.794,52.842l97.829,0a29.084,29.084 0 1 0 0,-58.169l0.001,0zm-0.001,0" id="cloud-4"/>
   <g opacity="0.92" id="Group_1">
    <path fill="#fff6d2" d="m179.109,114.832001l0.459,0.93l1.027,0.149l-0.743,0.724l0.176,1.022l-0.918,-0.482l-0.918,0.482l0.176,-1.022l-0.743,-0.724l1.027,-0.149l0.457,-0.93z" id="Path_4"/>
   </g>
   <g opacity="0.51" id="Group_2">
    <path fill="#fff6d2" d="m250.109,82.832l0.459,0.93l1.027,0.149l-0.743,0.724l0.176,1.022l-0.918,-0.482l-0.918,0.482l0.176,-1.022l-0.743,-0.724l1.027,-0.149l0.457,-0.93z" id="Path_4-2"/>
   </g>
   <g opacity="0.26" id="Group_4">
    <path fill="#fff6d2" d="m44.109,135.832001l0.459,0.93l1.027,0.149l-0.743,0.724l0.176,1.022l-0.918,-0.482l-0.918,0.482l0.176,-1.022l-0.743,-0.724l1.027,-0.149l0.457,-0.93z" id="Path_4-3"/>
   </g>
   <g opacity="0.92" id="Group_6">
    <path fill="#fff6d2" d="m44.109,15.831997l0.459,0.93l1.027,0.149l-0.743,0.724l0.176,1.022l-0.918,-0.482l-0.918,0.482l0.176,-1.022l-0.743,-0.724l1.027,-0.149l0.457,-0.93z" id="Path_4-4"/>
   </g>
   <g opacity="0.92" id="Group_7">
    <path opacity="0.45" fill="#fff6d2" d="m231.109,24.832001l0.459,0.93l1.027,0.149l-0.743,0.724l0.176,1.022l-0.918,-0.482l-0.918,0.482l0.176,-1.022l-0.743,-0.724l1.027,-0.149l0.457,-0.93z" id="Path_4-5"/>
   </g>
   <g opacity="0.48" id="Group_9">
    <path fill="#fff6d2" d="m164.109,185.831997l0.459,0.93l1.027,0.149l-0.743,0.724l0.176,1.022l-0.918,-0.482l-0.918,0.482l0.176,-1.022l-0.743,-0.724l1.027,-0.149l0.457,-0.93z" id="Path_4-6"/>
   </g>
   <g opacity="0.92" id="Group_10">
    <path fill="#fff6d2" d="m264.109,245.832004l0.459,0.93l1.027,0.149l-0.743,0.724l0.176,1.022l-0.918,-0.482l-0.918,0.482l0.176,-1.022l-0.743,-0.724l1.027,-0.149l0.457,-0.93z" id="Path_4-7"/>
   </g>
   <g opacity="0.46" id="Group_11">
    <path fill="#fff6d2" d="m304.109,195.831997l0.459,0.93l1.027,0.149l-0.743,0.724l0.176,1.022l-0.918,-0.482l-0.918,0.482l0.176,-1.022l-0.743,-0.724l1.027,-0.149l0.457,-0.93z" id="Path_4-8"/>
   </g>
   <g opacity="0.92" id="Group_13">
    <path fill="#fff6d2" d="m384.109,315.832004l0.459,0.93l1.027,0.149l-0.743,0.724l0.176,1.022l-0.918,-0.482l-0.918,0.482l0.176,-1.022l-0.743,-0.724l1.027,-0.149l0.457,-0.93z" id="Path_4-9"/>
   </g>
   <g opacity="0.92" id="Group_14">
    <path fill="#fff6d2" d="m264.109,375.832004l0.459,0.93l1.027,0.149l-0.743,0.724l0.176,1.022l-0.918,-0.482l-0.918,0.482l0.176,-1.022l-0.743,-0.724l1.027,-0.149l0.457,-0.93z" id="Path_4-10"/>
   </g>
   <g opacity="0.92" id="Group_15">
    <path fill="#fff6d2" d="m84.109,355.832004l0.459,0.93l1.027,0.149l-0.743,0.724l0.176,1.022l-0.918,-0.482l-0.918,0.482l0.176,-1.022l-0.743,-0.724l1.027,-0.149l0.457,-0.93z" id="Path_4-11"/>
   </g>
  </g>
 </g>
</svg>